<svg width="450" height="310" viewBox="0 0 450 310" fill="none" xmlns="http://www.w3.org/2000/svg">
<path d="M449.4 12.32V297.67C449.4 304.36 443.98 309.79 437.28 309.79H182.63C176.28 309.79 170.97 304.89 170.56 298.55C165 213.57 96.82 145.38 11.84 139.81C5.5 139.39 0.600006 134.09 0.600006 127.74V12.58C0.600006 5.72999 6.26999 0.189991 13.11 0.459991C91.11 3.53999 163.98 35.38 219.49 90.91C244.72 116.14 265.06 144.95 280.03 176.22C284.77 186.1 288.97 196.22 292.61 206.57C293.88 210.64 297.99 213.48 302.61 212.76C307.05 212.07 310.15 207.94 310.15 203.44V12.33C310.15 5.63999 315.57 0.209991 322.27 0.209991H437.27C443.96 0.209991 449.39 5.62999 449.39 12.33L449.4 12.32Z" fill="white"/>
</svg>
